<svg width="240" height="74" viewBox="0 0 240 74" fill="none" xmlns="http://www.w3.org/2000/svg">
<path fill-rule="evenodd" clip-rule="evenodd" d="M105.488 16.7864C103.168 16.7864 100.414 17.2783 97.4059 20.7662V11.0051C97.4059 8.53922 95.4046 6.53333 92.9443 6.53333C90.484 6.53333 88.4827 8.53922 88.4827 11.0051V42.8375C88.4827 45.3033 90.484 47.3092 92.9443 47.3092C95.4046 47.3092 97.4059 45.3033 97.4059 42.8375V30.4827C97.4059 26.9309 99.0886 24.9697 102.154 24.9697C105.156 24.9697 106.737 26.8734 106.737 30.4827V42.8375C106.737 45.3033 108.738 47.3092 111.199 47.3092C113.659 47.3092 115.66 45.3033 115.66 42.8375V27.8891C115.654 20.9387 111.855 16.7864 105.488 16.7864ZM131.111 17.0037C127.478 17.0037 124.597 17.4764 121.773 18.5369C120.307 19.0863 119.326 20.5044 119.326 22.0632C119.326 24.1457 120.977 25.7747 123.086 25.7747C123.52 25.7747 123.883 25.7108 124.38 25.5447C126.095 25.0081 127.905 24.7526 129.925 24.7526C134.718 24.7526 135.738 27.4037 135.751 29.646C134.087 29.103 131.99 28.6047 129.065 28.6047C121.442 28.6047 117.069 32.099 117.069 38.1998V38.3084C117.069 43.8214 121.2 47.5266 127.344 47.5266C130.805 47.5266 133.578 46.4725 135.789 44.3133C136.165 45.8912 137.676 47.3157 139.996 47.3157C142.437 47.3157 144.349 45.4248 144.349 43.0101V29.8312C144.349 25.6853 143.266 22.4912 141.118 20.3447C138.9 18.128 135.534 17.0037 131.111 17.0037ZM129.817 41.1192C127.287 41.1192 125.719 39.9182 125.719 37.9826V37.874C125.719 35.5678 127.644 34.2519 131.003 34.2519C132.723 34.2519 134.438 34.5904 135.859 35.2037V36.4238C135.859 39.1836 133.374 41.1192 129.817 41.1192ZM156.306 20.8433C158.613 18.1155 161.456 16.7867 164.974 16.7867C171.686 16.7867 178.474 22.0442 178.474 32.0993V32.2079C178.474 36.8393 177.053 40.7617 174.369 43.5597C171.915 46.1214 168.582 47.5268 164.974 47.5268C161.501 47.5268 158.741 46.3386 156.351 43.8089V51.4747C156.351 53.9405 154.349 55.9464 151.889 55.9464C149.429 55.9464 147.427 53.9405 147.427 51.4747V21.4757C147.427 19.0098 149.429 17.0039 151.889 17.0039C154.139 17.0039 156 18.6777 156.306 20.8433ZM169.557 32.0993C169.557 27.7617 166.683 24.4845 162.871 24.4845C159.034 24.4845 156.242 27.685 156.242 32.0993V32.2079C156.242 36.6221 159.028 39.8226 162.871 39.8226C166.746 39.8226 169.557 36.6221 169.557 32.2079V32.0993ZM198.08 16.7867C194.561 16.7867 191.719 18.1155 189.411 20.8433C189.105 18.6777 187.244 17.0039 184.994 17.0039C182.534 17.0039 180.533 19.0098 180.533 21.4757V51.4747C180.533 53.9405 182.534 55.9464 184.994 55.9464C187.455 55.9464 189.456 53.9405 189.456 51.4747V43.8089C191.846 46.3386 194.606 47.5268 198.08 47.5268C201.687 47.5268 205.021 46.1214 207.475 43.5597C210.158 40.7617 211.579 36.8393 211.579 32.2079V32.0993C211.579 22.0442 204.791 16.7867 198.08 16.7867ZM195.976 24.4845C199.788 24.4845 202.662 27.7617 202.662 32.0993V32.2079C202.662 36.6221 199.852 39.8226 195.976 39.8226C192.133 39.8226 189.348 36.6221 189.348 32.2079V32.0993C189.348 27.685 192.139 24.4845 195.976 24.4845ZM231.485 20.3768C232.313 18.1664 233.792 17.0038 235.761 17.0038C238.139 17.0038 240.006 18.8244 240 21.137C240 21.8077 239.783 22.7787 239.592 23.2259L229.528 47.45C226.998 53.589 224.359 55.7674 219.445 55.7674C217.711 55.7674 216.379 55.5374 214.849 54.9881C213.797 54.6048 212.026 53.6082 212.026 51.2446C212.026 48.9193 213.855 47.533 215.62 47.533C216.321 47.533 216.742 47.6544 217.08 47.7694C217.775 47.9866 218.157 48.076 218.686 48.076C220.025 48.076 220.586 47.8588 221.261 46.562L221.465 46.0765L211.675 23.3409C211.452 22.7787 211.216 21.9099 211.216 21.303C211.216 18.85 213.109 16.9974 215.62 16.9974C217.692 16.9974 219.094 18.0834 219.897 20.3193L225.793 36.2067L231.485 20.3768Z" fill="white"/>
<path d="M63.9739 18.7786V44.9078C63.9739 55.2784 55.5339 63.6863 45.1237 63.6863H43.217L33.4805 73.3795C33.0992 73.7594 32.5717 74 31.987 74C31.4467 74 30.9574 73.8037 30.5824 73.4745L30.4172 73.3099L30.4108 73.3036L20.7569 63.6863H18.8439C8.44003 63.6863 0 55.2784 0 44.9078V18.7786C0 8.40794 8.44003 0 18.8503 0H45.1237C55.5339 0 63.9739 8.40794 63.9739 18.7786Z" fill="#EB5757"/>
<path d="M14.895 36.197C13.0392 36.197 11.9814 38.3036 13.0582 39.8248C17.2449 45.7501 24.1677 49.6133 31.99 49.6133C39.8123 49.6133 46.7289 45.7437 50.9155 39.8248C51.9923 38.3036 50.9345 36.197 49.0787 36.197H14.895Z" fill="white"/>
<path d="M25.764 27.2298H14.5658V21.6036C14.5658 18.4977 17.074 15.9774 20.1649 15.9774C23.2558 15.9774 25.764 18.4977 25.764 21.6036V27.2298Z" fill="white"/>
<path d="M49.4148 27.2298H38.2166V21.6036C38.2166 18.4977 40.7248 15.9774 43.8157 15.9774C46.9066 15.9774 49.4148 18.4977 49.4148 21.6036V27.2298Z" fill="white"/>
</svg>
